<svg width="30" height="31" viewBox="0 0 30 31" fill="none" xmlns="http://www.w3.org/2000/svg">
<path d="M16.5 17C18.0625 17.0417 19.3542 17.5833 20.375 18.625C21.4167 19.6458 21.9583 20.9375 22 22.5C22 22.7917 21.9062 23.0312 21.7188 23.2188C21.5312 23.4062 21.2917 23.5 21 23.5H9C8.70833 23.5 8.46875 23.4062 8.28125 23.2188C8.09375 23.0312 8 22.7917 8 22.5C8.04167 20.9375 8.58333 19.6458 9.625 18.625C10.6458 17.5833 11.9375 17.0417 13.5 17H16.5ZM9.53125 22H20.4688C20.3229 21 19.8854 20.1667 19.1562 19.5C18.4271 18.8542 17.5417 18.5208 16.5 18.5H13.5C12.4583 18.5208 11.5729 18.8542 10.8438 19.5C10.1146 20.1667 9.67708 21 9.53125 22ZM15 15.5C13.875 15.4792 12.9271 15.0938 12.1562 14.3438C11.4062 13.5729 11.0208 12.625 11 11.5C11.0208 10.375 11.4062 9.42708 12.1562 8.65625C12.9271 7.90625 13.875 7.52083 15 7.5C16.125 7.52083 17.0729 7.90625 17.8438 8.65625C18.5938 9.42708 18.9792 10.375 19 11.5C18.9792 12.625 18.5938 13.5729 17.8438 14.3438C17.0729 15.0938 16.125 15.4792 15 15.5ZM15 9C14.2917 9.02083 13.6979 9.26042 13.2188 9.71875C12.7604 10.1979 12.5208 10.7917 12.5 11.5C12.5208 12.2083 12.7604 12.8021 13.2188 13.2812C13.6979 13.7396 14.2917 13.9792 15 14C15.7083 13.9792 16.3021 13.7396 16.7812 13.2812C17.2396 12.8021 17.4792 12.2083 17.5 11.5C17.4792 10.7917 17.2396 10.1979 16.7812 9.71875C16.3021 9.26042 15.7083 9.02083 15 9Z" fill="#333333"/>
</svg>
