<svg width="140" height="140" viewBox="0 0 140 140" fill="none" xmlns="http://www.w3.org/2000/svg">
<path fill-rule="evenodd" clip-rule="evenodd" d="M123.789 127.944C120.168 130.651 113.879 128.666 105.173 125.92C95.9886 123.022 84.5586 119.41 70.627 119.59C48.2819 119.869 34.0109 126.593 25.4852 130.61C21.0883 132.683 17.6129 134.32 16.2922 133.495C13.659 131.849 13.2379 119.765 12.9645 99.9986H129.148C129.345 116.386 127.677 125.035 123.789 127.944ZM30.582 35.0736C19.9669 43.3508 3.66212 62.2232 12.4887 96.1707H129.317C132.754 65.1109 122.974 41.4121 101.676 29.3234C80.3064 17.1937 50.409 19.6109 30.582 35.0736ZM59.9766 16.3133C59.9721 14.9097 60.2623 13.5207 60.8285 12.2364C61.3947 10.952 62.2243 9.80086 63.2635 8.85736C64.3027 7.91387 65.5284 7.19906 66.8613 6.75921C68.1943 6.31936 69.6047 6.16426 71.0013 6.30394C72.398 6.44363 73.7497 6.87499 74.9692 7.57011C76.1886 8.26523 77.2484 9.20862 78.0802 10.3392C78.912 11.4699 79.4971 12.7625 79.7977 14.1336C80.0984 15.5046 80.1078 16.9235 79.8254 18.2984C74.9053 17.6854 69.9345 17.5883 64.9941 18.0086C63.4 18.1449 61.8141 18.3336 60.2363 18.5746C60.0649 17.833 59.9778 17.0744 59.9766 16.3133ZM132.943 98.1146C135.101 80.6121 133.299 65.2805 127.587 52.552C122.498 41.2098 114.191 32.0277 103.565 25.993C97.3615 22.5206 90.6183 20.1155 83.6174 18.8781C83.9971 16.861 83.9238 14.7848 83.4029 12.7995C82.882 10.8142 81.9266 8.9694 80.6055 7.39853C79.2845 5.82766 77.6309 4.56993 75.7643 3.71628C73.8978 2.86263 71.8649 2.43438 69.8125 2.46248C67.7602 2.49059 65.7398 2.97435 63.8973 3.87879C62.0548 4.78324 60.4363 6.08577 59.1588 7.69223C57.8813 9.29869 56.9766 11.1689 56.5103 13.1678C56.044 15.1666 56.0276 17.2441 56.4624 19.25C46.0198 21.4074 36.2143 25.8262 28.2272 32.0551C19.1083 39.1672 12.4717 48.5406 9.02915 59.1609C5.19556 70.9926 5.2229 84.1805 9.11118 98.3609C9.28618 111.516 9.49126 119.744 10.0655 125.442C10.7354 132.103 11.9139 135.272 14.2627 136.741C15.1305 137.281 16.1361 137.56 17.1584 137.542C19.7561 137.542 22.9307 136.046 27.117 134.075C35.8944 129.937 49.1616 123.687 70.6756 123.419C83.9948 123.255 95.0963 126.755 104.021 129.571C113.444 132.543 120.89 134.892 126.08 131.009C131.333 127.08 133.32 117.567 132.948 98.1723C132.948 98.1529 132.946 98.1337 132.943 98.1146Z" fill="#ED1C24"/>
<path fill-rule="evenodd" clip-rule="evenodd" d="M129.148 99.9985H12.9639C13.2373 119.765 13.6584 131.849 16.2916 133.495C17.6123 134.32 21.0877 132.683 25.4846 130.61C34.0104 126.593 48.2813 119.869 70.6264 119.59C84.558 119.41 95.988 123.022 105.172 125.92C113.879 128.666 120.168 130.651 123.788 127.944C127.676 125.035 129.345 116.386 129.148 99.9985Z" fill="#ED1C24"/>
<path fill-rule="evenodd" clip-rule="evenodd" d="M64.9936 18.0086C69.9339 17.5883 74.9047 17.6854 79.8248 18.2985C80.1222 16.8311 80.0871 15.3158 79.722 13.8638C79.357 12.4118 78.6714 11.06 77.7156 9.9077C76.7597 8.75539 75.5579 7.83182 74.1983 7.20482C72.8387 6.57783 71.356 6.26334 69.859 6.28444C68.362 6.30555 66.8887 6.66172 65.5473 7.32679C64.206 7.99186 63.0307 8.94894 62.1077 10.1277C61.1847 11.3066 60.5374 12.6771 60.2135 14.1388C59.8896 15.6006 59.8972 17.1163 60.2358 18.5746C61.8108 18.334 63.3967 18.1453 64.9936 18.0086Z" fill="#FFDFE0"/>
<path d="M70 51.0352L40.4102 56.6968V71.1571L70 76.8188L99.5898 71.1571V56.6968L70 51.0352ZM46.3281 67.2585H44.3042V60.5931H46.3281V67.2585ZM55.8703 63.3978H53.8463V62.7666C53.8463 62.7666 53.8463 62.3324 53.4131 62.3324H49.654C49.2208 62.3324 49.2208 62.7666 49.2208 62.7666V65.0849C49.2208 65.0849 49.2208 65.5192 49.654 65.5192H53.4131C53.8463 65.5192 53.8463 65.0849 53.8463 65.0849V64.4537H55.8703V65.8087C55.8703 65.8087 55.8703 67.2585 54.4239 67.2585H48.6409C47.1945 67.2585 47.1945 65.8087 47.1945 65.8087V62.0405C47.1945 62.0405 47.1945 60.5907 48.6409 60.5907H54.4239C55.8703 60.5907 55.8703 62.0405 55.8703 62.0405V63.3954V63.3978ZM64.8348 62.3324H58.763V63.0561H64.6904V64.7954H58.763V65.5192H64.8348V67.2585H56.739V60.5931H64.8348V62.3324ZM95.6958 67.2585H93.1606L89.4109 63.106V67.2585H85.2731L84.2505 65.5927H80.2499L79.2273 67.2585H75.0895V63.4643L72.7104 67.2585H70.3953L68.0163 63.4643V67.2585H65.9924V60.5931H68.3927L71.5529 65.55L74.7438 60.5931H77.1158V66.6036L81.0879 60.5931H83.4172L87.3894 66.6036V60.5931H89.9246L93.6742 64.7456V60.5931H95.6982V67.2585H95.6958Z" fill="white"/>
<path d="M70 57.9102L40.4102 63.5718V78.0321L70 83.6938L99.5898 78.0321V63.5718L70 57.9102ZM46.3281 74.1335H44.3042V67.4681H46.3281V74.1335ZM55.8703 70.2728H53.8463V69.6416C53.8463 69.6416 53.8463 69.2074 53.4131 69.2074H49.654C49.2208 69.2074 49.2208 69.6416 49.2208 69.6416V71.9599C49.2208 71.9599 49.2208 72.3942 49.654 72.3942H53.4131C53.8463 72.3942 53.8463 71.9599 53.8463 71.9599V71.3287H55.8703V72.6837C55.8703 72.6837 55.8703 74.1335 54.4239 74.1335H48.6409C47.1945 74.1335 47.1945 72.6837 47.1945 72.6837V68.9155C47.1945 68.9155 47.1945 67.4657 48.6409 67.4657H54.4239C55.8703 67.4657 55.8703 68.9155 55.8703 68.9155V70.2704V70.2728ZM64.8348 69.2074H58.763V69.9311H64.6904V71.6704H58.763V72.3942H64.8348V74.1335H56.739V67.4681H64.8348V69.2074ZM95.6958 74.1335H93.1606L89.4109 69.981V74.1335H85.2731L84.2505 72.4677H80.2499L79.2273 74.1335H75.0895V70.3393L72.7104 74.1335H70.3953L68.0163 70.3393V74.1335H65.9924V67.4681H68.3927L71.5529 72.425L74.7438 67.4681H77.1158V73.4786L81.0879 67.4681H83.4172L87.3894 73.4786V67.4681H89.9246L93.6742 71.6206V67.4681H95.6982V74.1335H95.6958Z" fill="white"/>
<path d="M70 54.4727L40.4102 60.1343V74.5946L70 80.2563L99.5898 74.5946V60.1343L70 54.4727ZM46.3281 70.696H44.3042V64.0306H46.3281V70.696ZM55.8703 66.8353H53.8463V66.2041C53.8463 66.2041 53.8463 65.7699 53.4131 65.7699H49.654C49.2208 65.7699 49.2208 66.2041 49.2208 66.2041V68.5224C49.2208 68.5224 49.2208 68.9567 49.654 68.9567H53.4131C53.8463 68.9567 53.8463 68.5224 53.8463 68.5224V67.8912H55.8703V69.2462C55.8703 69.2462 55.8703 70.696 54.4239 70.696H48.6409C47.1945 70.696 47.1945 69.2462 47.1945 69.2462V65.478C47.1945 65.478 47.1945 64.0282 48.6409 64.0282H54.4239C55.8703 64.0282 55.8703 65.478 55.8703 65.478V66.8329V66.8353ZM64.8348 65.7699H58.763V66.4936H64.6904V68.2329H58.763V68.9567H64.8348V70.696H56.739V64.0306H64.8348V65.7699ZM95.6958 70.696H93.1606L89.4109 66.5435V70.696H85.2731L84.2505 69.0302H80.2499L79.2273 70.696H75.0895V66.9018L72.7104 70.696H70.3953L68.0163 66.9018V70.696H65.9924V64.0306H68.3927L71.5529 68.9875L74.7438 64.0306H77.1158V70.0411L81.0879 64.0306H83.4172L87.3894 70.0411V64.0306H89.9246L93.6742 68.1831V64.0306H95.6982V70.696H95.6958Z" fill="#ED1C24"/>
<path d="M81.23 67.4357H83.2729L82.2502 65.7747L81.23 67.4357Z" fill="#ED1C24"/>
</svg>
