<svg width="30" height="31" viewBox="0 0 30 31" fill="none" xmlns="http://www.w3.org/2000/svg">
<path d="M11.5 12.5V11C11.5208 10 11.8646 9.17708 12.5312 8.53125C13.1771 7.86458 14 7.52083 15 7.5C16 7.52083 16.8229 7.86458 17.4688 8.53125C18.1354 9.17708 18.4792 10 18.5 11V12.5H20.5C20.9167 12.5208 21.2708 12.6667 21.5625 12.9375C21.8333 13.2292 21.9792 13.5833 22 14V20.5C21.9792 21.3542 21.6875 22.0625 21.125 22.625C20.5625 23.1875 19.8542 23.4792 19 23.5H11C10.1458 23.4792 9.4375 23.1875 8.875 22.625C8.3125 22.0625 8.02083 21.3542 8 20.5V14C8.02083 13.5833 8.16667 13.2292 8.4375 12.9375C8.72917 12.6667 9.08333 12.5208 9.5 12.5H11.5ZM13 12.5H17V11C16.9792 10.4375 16.7812 9.96875 16.4062 9.59375C16.0312 9.21875 15.5625 9.02083 15 9C14.4375 9.02083 13.9688 9.21875 13.5938 9.59375C13.2188 9.96875 13.0208 10.4375 13 11V12.5ZM9.5 14V20.5C9.52083 20.9167 9.66667 21.2708 9.9375 21.5625C10.2292 21.8333 10.5833 21.9792 11 22H19C19.4167 21.9792 19.7708 21.8333 20.0625 21.5625C20.3333 21.2708 20.4792 20.9167 20.5 20.5V14H18.5V15.75C18.4583 16.2083 18.2083 16.4583 17.75 16.5C17.2917 16.4583 17.0417 16.2083 17 15.75V14H13V15.75C12.9583 16.2083 12.7083 16.4583 12.25 16.5C11.7917 16.4583 11.5417 16.2083 11.5 15.75V14H9.5Z" fill="#333333"/>
</svg>
