<svg width="15" height="16" viewBox="0 0 15 16" fill="none" xmlns="http://www.w3.org/2000/svg">
<g clip-path="url(#clip0_2058_2825)">
<path d="M8.87423 8.01217L14.7149 2.17129C15.095 1.79136 15.095 1.17708 14.7149 0.797151C14.335 0.417226 13.7207 0.417226 13.3408 0.797151L7.49992 6.63803L1.65921 0.797151C1.27911 0.417226 0.665002 0.417226 0.285077 0.797151C-0.0950257 1.17708 -0.0950257 1.79136 0.285077 2.17129L6.12578 8.01217L0.285077 13.853C-0.0950257 14.233 -0.0950257 14.8473 0.285077 15.2272C0.474417 15.4167 0.72337 15.5119 0.972145 15.5119C1.22092 15.5119 1.4697 15.4167 1.65921 15.2272L7.49992 9.3863L13.3408 15.2272C13.5303 15.4167 13.7791 15.5119 14.0279 15.5119C14.2766 15.5119 14.5254 15.4167 14.7149 15.2272C15.095 14.8473 15.095 14.233 14.7149 13.853L8.87423 8.01217Z" fill="#333333"/>
</g>
<defs>
<clipPath id="clip0_2058_2825">
<rect width="15" height="15" fill="white" transform="translate(0 0.5)"/>
</clipPath>
</defs>
</svg>
