<svg width="140" height="140" viewBox="0 0 140 140" fill="none" xmlns="http://www.w3.org/2000/svg">
<path d="M131.569 29.2886H123.139V77.428H16.8612V29.2886H8.43059V77.428H0V85.7488H140V77.428H131.569V29.2886Z" fill="#ED1C24"/>
<path d="M140 0H0V25.1282H140V0Z" fill="#ED1C24"/>
<path d="M8.43066 140H131.532V89.9093H8.43066V140ZM35.8487 114.945V107.269L70.0001 100.31L104.151 107.269V122.64L70.0001 129.599L35.8487 122.64V114.945Z" fill="#ED1C24"/>
<path d="M25.292 39.616V65.094H46.3685V39.6896L44.2422 34.4983H37.3037L39.4114 29.2886H32.3237L34.4313 34.4983H27.4369L25.292 39.616ZM33.6293 40.2603H38.0311L40.0269 49.7961L38.0311 59.332H33.5734L31.7082 49.7961L33.6293 40.2603Z" fill="#ED1C24"/>
<path d="M46.3685 69.2544H25.292V73.4148H46.3685V69.2544Z" fill="#ED1C24"/>
<path d="M97.847 58.6876V52.6311H80.9858V58.6876L87.3088 59.9763V69.2728H83.0935V73.4332H95.7394V69.2728H91.5241V59.9763L97.847 58.6876Z" fill="#ED1C24"/>
<path d="M76.7704 55.7422L75.5021 52.6311H65.4115L64.1245 55.7054V73.4148H76.7704V55.7422Z" fill="#ED1C24"/>
<path d="M118.924 52.6311H102.062L102.902 56.7915H118.084L118.924 52.6311Z" fill="#ED1C24"/>
<path d="M114.708 73.4332L115.548 69.2728H105.438L106.278 73.4332H114.708Z" fill="#ED1C24"/>
<path d="M117.226 60.952H103.741L104.581 65.1124H116.387L117.226 60.952Z" fill="#ED1C24"/>
</svg>
