<svg width="21" height="20" viewBox="0 0 21 20" fill="none" xmlns="http://www.w3.org/2000/svg">
<g clip-path="url(#clip0_7206_507)">
<path d="M18.2283 0H3.68284C2.17661 0 0.955566 1.22104 0.955566 2.72727V17.2727C0.955566 18.779 2.17661 20 3.68284 20H18.2283C19.7345 20 20.9556 18.779 20.9556 17.2727V2.72727C20.9556 1.22104 19.7345 0 18.2283 0Z" fill="white"/>
<path d="M8.16007 5.45455C8.16007 5.79167 8.0601 6.12123 7.8728 6.40154C7.6855 6.68185 7.41929 6.90033 7.10782 7.02934C6.79636 7.15835 6.45363 7.19211 6.12298 7.12634C5.79233 7.06057 5.48861 6.89823 5.25023 6.65984C5.01184 6.42146 4.8495 6.11774 4.78373 5.78709C4.71796 5.45644 4.75171 5.11371 4.88073 4.80224C5.00974 4.49078 5.22822 4.22457 5.50853 4.03727C5.78884 3.84997 6.1184 3.75 6.45552 3.75C6.9076 3.75 7.34115 3.92959 7.66082 4.24925C7.98048 4.56891 8.16007 5.00247 8.16007 5.45455Z" fill="#333333"/>
<path d="M7.77372 8.29547V15.8262C7.77402 15.8817 7.76334 15.9368 7.74229 15.9882C7.72123 16.0396 7.69023 16.0863 7.65105 16.1257C7.61187 16.1651 7.56529 16.1964 7.514 16.2177C7.4627 16.239 7.40769 16.25 7.35213 16.25H5.55554C5.49999 16.2502 5.44495 16.2393 5.39359 16.2181C5.34224 16.1969 5.29558 16.1658 5.25629 16.1265C5.21701 16.0873 5.18588 16.0406 5.16469 15.9892C5.1435 15.9379 5.13266 15.8828 5.13281 15.8273V8.29547C5.13281 8.18335 5.17735 8.07583 5.25663 7.99656C5.33591 7.91728 5.44343 7.87274 5.55554 7.87274H7.35213C7.46405 7.87304 7.57128 7.91771 7.65031 7.99696C7.72934 8.0762 7.77372 8.18355 7.77372 8.29547Z" fill="#333333"/>
<path d="M17.1645 12.2159V15.8614C17.1647 15.9125 17.1547 15.9631 17.1352 16.0103C17.1158 16.0575 17.0871 16.1004 17.051 16.1365C17.0149 16.1726 16.972 16.2013 16.9248 16.2207C16.8776 16.2402 16.827 16.2502 16.7759 16.25H14.8441C14.793 16.2502 14.7424 16.2402 14.6952 16.2207C14.6479 16.2013 14.605 16.1726 14.5689 16.1365C14.5328 16.1004 14.5042 16.0575 14.4847 16.0103C14.4652 15.9631 14.4553 15.9125 14.4554 15.8614V12.3284C14.4554 11.8012 14.61 10.0193 13.077 10.0193C11.8895 10.0193 11.6475 11.2387 11.5997 11.7864V15.8614C11.5998 15.9635 11.5596 16.0615 11.4879 16.1342C11.4163 16.2069 11.3189 16.2485 11.2168 16.25H9.35088C9.2999 16.25 9.24942 16.24 9.20233 16.2204C9.15524 16.2009 9.11247 16.1722 9.07647 16.1361C9.04048 16.1 9.01196 16.0572 8.99255 16.01C8.97314 15.9629 8.96323 15.9124 8.96338 15.8614V8.26251C8.96323 8.21153 8.97314 8.16102 8.99255 8.11388C9.01196 8.06673 9.04048 8.02388 9.07647 7.98778C9.11247 7.95167 9.15524 7.92303 9.20233 7.90348C9.24942 7.88394 9.2999 7.87388 9.35088 7.87388H11.2168C11.3199 7.87388 11.4187 7.91482 11.4916 7.98771C11.5645 8.06059 11.6054 8.15944 11.6054 8.26251V8.91933C12.0463 8.25797 12.6997 7.74774 14.0941 7.74774C17.1827 7.74774 17.1645 10.6318 17.1645 12.2159Z" fill="#333333"/>
</g>
<defs>
<clipPath id="clip0_7206_507">
<rect width="20" height="20" fill="white" transform="translate(0.955566)"/>
</clipPath>
</defs>
</svg>
