<svg width="14" height="14" viewBox="0 0 14 14" fill="none" xmlns="http://www.w3.org/2000/svg">
<path d="M13.5 7.25C13.5 7.54167 13.4062 7.78125 13.2188 7.96875C13.0312 8.15625 12.7917 8.25 12.5 8.25H8V12.75C8 13.0417 7.90625 13.2812 7.71875 13.4688C7.53125 13.6562 7.29167 13.75 7 13.75C6.70833 13.75 6.46875 13.6562 6.28125 13.4688C6.09375 13.2812 6 13.0417 6 12.75V8.25H1.5C1.20833 8.25 0.96875 8.15625 0.78125 7.96875C0.59375 7.78125 0.5 7.54167 0.5 7.25C0.5 6.95833 0.59375 6.71875 0.78125 6.53125C0.96875 6.34375 1.20833 6.25 1.5 6.25H6V1.75C6 1.45833 6.09375 1.21875 6.28125 1.03125C6.46875 0.84375 6.70833 0.75 7 0.75C7.29167 0.75 7.53125 0.84375 7.71875 1.03125C7.90625 1.21875 8 1.45833 8 1.75V6.25H12.5C12.7917 6.25 13.0312 6.34375 13.2188 6.53125C13.4062 6.71875 13.5 6.95833 13.5 7.25Z" fill="white"/>
</svg>
