<svg width="30" height="31" viewBox="0 0 30 31" fill="none" xmlns="http://www.w3.org/2000/svg">
<path d="M22.75 22.2188C23.0625 22.5729 23.0729 22.9271 22.7812 23.2812C22.6354 23.4271 22.4583 23.5 22.25 23.5C22.0625 23.5 21.875 23.4271 21.6875 23.2812L17.5 19.0938C16.375 20.0104 15.0312 20.4792 13.4688 20.5C11.6354 20.4583 10.1146 19.8229 8.90625 18.5938C7.67708 17.3646 7.04167 15.8333 7 14C7.04167 12.1667 7.66667 10.6354 8.875 9.40625C10.1042 8.17708 11.6354 7.54167 13.4688 7.5C15.3021 7.54167 16.8333 8.17708 18.0625 9.40625C19.2917 10.6354 19.9271 12.1667 19.9688 14C19.9479 15.5417 19.4792 16.8854 18.5625 18.0312L22.75 22.2188ZM8.5 14C8.54167 15.4167 9.03125 16.5938 9.96875 17.5312C10.9062 18.4688 12.0833 18.9583 13.5 19C14.9167 18.9583 16.0938 18.4688 17.0312 17.5312C17.9688 16.5938 18.4583 15.4167 18.5 14C18.4583 12.5833 17.9688 11.4062 17.0312 10.4688C16.0938 9.53125 14.9167 9.04167 13.5 9C12.0833 9.04167 10.9062 9.53125 9.96875 10.4688C9.03125 11.4062 8.54167 12.5833 8.5 14Z" fill="#333333"/>
</svg>
