<svg width="31" height="30" viewBox="0 0 31 30" fill="none" xmlns="http://www.w3.org/2000/svg">
<path d="M8.97095 9.75C9.01261 9.29167 9.26261 9.04167 9.72095 9H22.2209C22.6793 9.04167 22.9293 9.29167 22.9709 9.75C22.9293 10.2083 22.6793 10.4583 22.2209 10.5H9.72095C9.26261 10.4583 9.01261 10.2083 8.97095 9.75ZM8.97095 14.75C9.01261 14.2917 9.26261 14.0417 9.72095 14H22.2209C22.6793 14.0417 22.9293 14.2917 22.9709 14.75C22.9293 15.2083 22.6793 15.4583 22.2209 15.5H9.72095C9.26261 15.4583 9.01261 15.2083 8.97095 14.75ZM22.2209 20.5H9.72095C9.26261 20.4583 9.01261 20.2083 8.97095 19.75C9.01261 19.2917 9.26261 19.0417 9.72095 19H22.2209C22.6793 19.0417 22.9293 19.2917 22.9709 19.75C22.9293 20.2083 22.6793 20.4583 22.2209 20.5Z" fill="#333333"/>
</svg>
