<svg width="180" height="90" viewBox="0 0 180 90" fill="none" xmlns="http://www.w3.org/2000/svg">
<g clip-path="url(#clip0_2486_10125)">
<path d="M111.928 15.6744V25.7515L134.029 30.3151L156.13 25.7515V15.6744L134.029 11.1016L111.928 15.6744Z" fill="#ED1C24"/>
<path d="M88.0209 47.7405H79.6016V49.8453H88.0209V47.7405Z" fill="#ED1C24"/>
<path d="M83.8487 41.426H88.0583V25.2579H80.9429L70.4188 41.426H67.9042L78.4283 25.2579H74.6284L64.1043 41.426H61.5897L72.1138 25.2579H62.4092L53.0586 38.8369V45.6356H83.8487V41.426Z" fill="#ED1C24"/>
<path d="M133.107 67.7363C129.624 67.7363 126.792 70.5676 126.792 74.0508C126.792 77.534 129.624 80.3653 133.107 80.3653C136.59 80.3653 139.421 77.534 139.421 74.0508C139.421 70.5676 136.59 67.7363 133.107 67.7363ZM133.107 76.1556C131.943 76.1556 131.002 75.215 131.002 74.0508C131.002 72.8866 131.943 71.946 133.107 71.946C134.271 71.946 135.212 72.8866 135.212 74.0508C135.212 75.215 134.271 76.1556 133.107 76.1556Z" fill="#ED1C24"/>
<path d="M30.8457 67.7363C27.3625 67.7363 24.5312 70.5676 24.5312 74.0508C24.5312 77.534 27.3625 80.3653 30.8457 80.3653C34.3289 80.3653 37.1602 77.534 37.1602 74.0508C37.1602 70.5676 34.3289 67.7363 30.8457 67.7363ZM30.8457 76.1556C29.6816 76.1556 28.7409 75.215 28.7409 74.0508C28.7409 72.8866 29.6816 71.946 30.8457 71.946C32.0099 71.946 32.9506 72.8866 32.9506 74.0508C32.9506 75.215 32.0099 76.1556 30.8457 76.1556Z" fill="#ED1C24"/>
<path d="M175.79 65.6315V39.3212H171.581V0H96.4775V4.20965H81.7437V16.8386H96.4775V39.3118H94.3726V18.9341H59.0842L47.4331 35.8659L4.20965 44.8067V65.6222H0V74.0415H15.4975C15.4975 82.5167 22.3708 89.39 30.846 89.39C39.3212 89.39 46.1944 82.5167 46.1944 74.0415H117.759C117.759 82.5167 124.632 89.39 133.107 89.39C141.582 89.39 148.456 82.5167 148.456 74.0415H179.991V65.6222H175.781L175.79 65.6315ZM98.5823 2.10483H169.476V39.3212H98.5823V2.10483ZM83.8485 10.5241V6.31448H96.4775V10.5241H83.8485ZM6.31448 46.5297L48.6904 37.7751L60.1925 21.0576H92.2678V59.317H48.8301L43.0372 50.8977H18.664L14.7431 56.5975V48.7929H6.31448V46.5297ZM6.31448 50.8977H12.629V55.1074H6.31448V50.8977ZM6.31448 65.6315V61.4218H11.4089L8.51244 65.6315H6.31448ZM30.846 82.4701C26.2079 82.4701 22.4267 78.6889 22.4267 74.0508C22.4267 69.4127 26.2079 65.6315 30.846 65.6315C35.484 65.6315 39.2653 69.4127 39.2653 74.0508C39.2653 78.6889 35.484 82.4701 30.846 82.4701ZM48.0664 65.6315L40.8206 55.1074H20.8713L13.6255 65.6315H11.0643L19.7537 53.0025H41.9196L50.609 65.6315H48.0571H48.0664ZM53.1795 65.6315L50.283 61.4218H113.689L110.792 65.6315H53.1888H53.1795ZM133.116 82.4701C128.478 82.4701 124.697 78.6889 124.697 74.0508C124.697 69.4127 128.478 65.6315 133.116 65.6315C137.754 65.6315 141.536 69.4127 141.536 74.0508C141.536 78.6889 137.754 82.4701 133.116 82.4701ZM150.337 65.6315L143.091 55.1074H123.142L115.896 65.6315H113.344L122.033 53.0025H144.199L152.889 65.6315H150.337ZM167.38 61.4218V65.6315H155.45L152.553 61.4218H167.38ZM173.695 65.6315H169.485V61.4218H173.695V65.6315ZM173.695 55.1074H169.485V50.8977H173.695V55.1074ZM173.695 48.7929H167.38V59.317H151.101L145.308 50.8977H120.934L115.142 59.317H94.382V41.426H173.695V48.7929Z" fill="#ED1C24"/>
</g>
<defs>
<clipPath id="clip0_2486_10125">
<rect width="180" height="89.3993" fill="white"/>
</clipPath>
</defs>
</svg>
