<svg width="19" height="16" viewBox="0 0 19 16" fill="none" xmlns="http://www.w3.org/2000/svg">
<path fill-rule="evenodd" clip-rule="evenodd" d="M16.5163 4.24813C16.5232 4.41028 16.5278 4.57243 16.5278 4.73688C16.5278 9.72443 12.7305 15.4767 5.7868 15.4767C3.6547 15.4767 1.67095 14.8523 0 13.7816C0.29555 13.8161 0.5957 13.8334 0.90045 13.8334C2.66915 13.8334 4.2964 13.2308 5.589 12.2176C3.93645 12.1877 2.54265 11.0964 2.06195 9.59678C2.2931 9.64048 2.52885 9.66348 2.77265 9.66348C3.1165 9.66348 3.45 9.61749 3.7674 9.53123C2.0401 9.18508 0.73945 7.65903 0.73945 5.83053C0.73945 5.81443 0.73945 5.79834 0.73945 5.78223C1.24775 6.06514 1.8308 6.23533 2.4495 6.25488C1.43635 5.57753 0.76935 4.42178 0.76935 3.11308C0.76935 2.42078 0.95565 1.77218 1.2811 1.21443C3.14295 3.49833 5.9248 5.00138 9.062 5.15893C8.9976 4.88293 8.96425 4.59429 8.96425 4.29873C8.96425 2.21378 10.6547 0.523285 12.7385 0.523285C13.8253 0.523285 14.8062 0.982135 15.4939 1.71583C16.3541 1.54678 17.1626 1.23283 17.8917 0.800435C17.6099 1.68133 17.0108 2.42078 16.2322 2.88883C16.9958 2.79683 17.7226 2.59443 18.4 2.29428C17.894 3.05098 17.2534 3.71568 16.5163 4.24813Z" fill="white"/>
</svg>
